<?xml version="1.0" encoding="utf-8"?>
<!-- Generator: Adobe Illustrator 24.1.2, SVG Export Plug-In . SVG Version: 6.00 Build 0)  -->
<svg version="1.1" id="Camada_1" xmlns="http://www.w3.org/2000/svg" xmlns:xlink="http://www.w3.org/1999/xlink" x="0px" y="0px"
	 viewBox="0 0 18 18" style="enable-background:new 0 0 18 18;" xml:space="preserve">
<style type="text/css">
	.st0{fill:#444444;}
</style>
<path class="st0" d="M12.5,11.5h-0.8l-0.3-0.3c1.2-1.4,1.8-3.3,1.5-5.3c-0.5-2.8-2.8-5-5.6-5.3C3.1,0-0.5,3.6,0,7.8
	c0.3,2.8,2.6,5.1,5.3,5.6c2,0.3,3.9-0.3,5.3-1.5l0.3,0.3V13l4.3,4.3c0.4,0.4,1.1,0.4,1.5,0s0.4-1.1,0-1.5L12.5,11.5z M6.5,11.5
	C4,11.5,2,9.5,2,7s2-4.5,4.5-4.5S11,4.5,11,7S9,11.5,6.5,11.5z"/>
</svg>
